<svg width="32" height="32" viewBox="0 0 32 32" fill="none" xmlns="http://www.w3.org/2000/svg">
<path d="M12.008 20.018L11 19.01L15.518 14.492C15.878 14.132 16.208 13.814 16.508 13.538C16.82 13.25 17.108 12.992 17.372 12.764C17.648 12.536 17.9 12.326 18.128 12.134L19.262 11.756L18.884 12.89C18.692 13.118 18.482 13.37 18.254 13.646C18.026 13.91 17.768 14.198 17.48 14.51C17.204 14.81 16.886 15.14 16.526 15.5L12.008 20.018ZM18.506 19.694C18.434 19.238 18.38 18.77 18.344 18.29C18.308 17.798 18.29 17.306 18.29 16.814C18.29 16.106 18.32 15.416 18.38 14.744C18.452 14.072 18.548 13.454 18.668 12.89C18.8 12.314 18.956 11.834 19.136 11.45L19.568 11.882C19.184 12.062 18.704 12.218 18.128 12.35C17.564 12.47 16.946 12.566 16.274 12.638C15.602 12.698 14.912 12.728 14.204 12.728C13.712 12.728 13.22 12.71 12.728 12.674C12.248 12.638 11.78 12.584 11.324 12.512L11.468 11.108C12.104 11.216 12.728 11.294 13.34 11.342C13.952 11.39 14.564 11.414 15.176 11.414C15.968 11.414 16.754 11.378 17.534 11.306C18.326 11.222 19.124 11.12 19.928 11L20.018 11.09C19.898 11.894 19.796 12.692 19.712 13.484C19.64 14.264 19.604 15.05 19.604 15.842C19.604 16.454 19.628 17.066 19.676 17.678C19.724 18.29 19.802 18.914 19.91 19.55L18.506 19.694Z" fill="currentColor"/>
</svg>
