<svg width="32" height="32" viewBox="0 0 32 32" fill="none" xmlns="http://www.w3.org/2000/svg">
<g clip-path="url(#clip0_2185_5998)">
<path fill-rule="evenodd" clip-rule="evenodd" d="M17.6368 16.3525L14.8359 17.102L13.317 16.6008C12.4383 16.3109 11.411 16.064 10.8795 16.015C10.3381 15.9651 10.0147 16.145 10.0147 16.145L11.4246 16.7679V17.2098C11.4246 17.2098 10.8629 16.9813 10.2684 16.7022C9.01726 16.1147 8.72564 16.0805 8.30601 16.4717C6.94564 17.7398 10.0553 19.6866 16.323 21.4908C20.0654 22.5682 22.4328 23.0333 23.0236 22.8075C23.5699 22.5987 23.6783 22.2529 23.3273 21.8389L23.0303 21.4887L23.5151 20.6408C24.0385 19.7257 24.0848 19.5426 23.843 19.3435C23.4316 19.0046 23.0523 19.0535 22.0211 19.5781L20.9938 20.1008L19.9359 19.5546C19.354 19.2541 18.8776 18.9803 18.8773 18.9462C18.8769 18.9121 19.6356 18.3941 20.5633 17.7953C22.4039 16.6071 22.5285 16.4312 21.8636 15.9614C21.1989 15.4918 20.67 15.5407 17.6368 16.3525ZM11.442 20.5811C11.3559 20.8299 11.125 22.635 11.125 23.0606C11.125 23.3223 11.2539 23.564 11.55 23.8578C12.2235 24.5261 12.4151 24.4522 13.6694 23.0387C14.275 22.3563 14.7495 21.7355 14.7239 21.6593C14.6983 21.583 14.0841 21.3109 13.3591 21.0544C11.4751 20.3882 11.5063 20.3958 11.442 20.5811Z" fill="currentColor"/>
</g>
<defs>
<clipPath id="clip0_2185_5998">
<rect width="16" height="16" fill="white" transform="translate(8 12)"/>
</clipPath>
</defs>
</svg>
