<svg width="32" height="32" viewBox="0 0 32 32" fill="none" xmlns="http://www.w3.org/2000/svg">
<path d="M23.3328 19.0164L23.1666 17.1848L17.1385 13.7648C17.1385 13.7648 17.1923 12.6037 17.1385 10.8921C17.079 9.81651 16.6952 8.79612 16.0507 8L16.0536 8.004H15.946C15.3051 8.79536 14.9225 9.809 14.8611 10.8781L14.8605 10.8921C14.8067 12.603 14.8605 13.7648 14.8605 13.7648L8.83296 17.1848L8.66675 19.0164L12.7417 17.634L14.8067 17.2461C14.7322 18.8488 14.8784 20.4548 15.2403 22.0071L15.219 21.8991L13.6053 22.629V23.8274L15.6875 23.2941C15.7792 23.5021 15.8649 23.6714 15.9572 23.8354L15.9448 23.812V24C15.9637 23.9693 15.9814 23.936 15.9998 23.9047C16.0187 23.9353 16.0359 23.9687 16.0554 24V23.812C16.1352 23.6721 16.221 23.5028 16.2991 23.3281L16.3127 23.2941L18.3948 23.8274V22.629L16.7812 21.8991C17.0551 20.744 17.2118 19.4176 17.2118 18.0506C17.2118 17.7673 17.2053 17.486 17.1917 17.2067L17.1935 17.2454L19.259 17.6333L23.3334 19.0157L23.3328 19.0164Z" fill="currentColor"/>
</svg>
