<svg fill="none" xmlns="http://www.w3.org/2000/svg" viewBox="0 0 25 24">
  <path clip-rule="evenodd" d="M15.027 9.12h-3.053a1 1 0 0 1-.95-1.316v0a2.462 2.462 0 0 1 2.337-1.684h.278c1.06 0 2 .678 2.336 1.684v0a1 1 0 0 1-.948 1.316v0Z" stroke="currentColor" vector-effect="non-scaling-stroke" stroke-width="1.5" stroke-linecap="round" stroke-linejoin="round"/>
  <path d="M7.493 13.263H4.5a1 1 0 0 0-.988 1.154l.344 2.2A4 4 0 0 0 7.808 20h9.384a4 4 0 0 0 3.952-3.382l.344-2.2a1 1 0 0 0-.988-1.154h-7.737M13.5 6.12V6a3 3 0 0 1 3-3v0a3 3 0 0 1 3 3v7.263" stroke="currentColor" vector-effect="non-scaling-stroke" stroke-width="1.5" stroke-linecap="round" stroke-linejoin="round"/>
  <path clip-rule="evenodd" d="M10.658 17.263H9.605A2.105 2.105 0 0 1 7.5 15.158v-2.005c0-.637.516-1.153 1.153-1.153h2.957c.637 0 1.153.516 1.153 1.153v2.005a2.104 2.104 0 0 1-2.105 2.105Z" stroke="currentColor" vector-effect="non-scaling-stroke" stroke-width="1.5" stroke-linecap="round" stroke-linejoin="round"/>
  <path d="M6.54 19.8 5.5 21M19.5 21l-1.04-1.2" stroke="currentColor" vector-effect="non-scaling-stroke" stroke-width="1.5" stroke-linecap="round" stroke-linejoin="round"/>
</svg>