<svg viewBox="0 0 32 32" fill="none" xmlns="http://www.w3.org/2000/svg">
  <path d="M12.008 20.018 11 19.01l4.518-4.518a33.321 33.321 0 0 1 1.854-1.728c.276-.228.528-.438.756-.63l1.134-.378-.378 1.134c-.192.228-.402.48-.63.756a35.34 35.34 0 0 1-1.728 1.854l-4.518 4.518Zm6.498-.324a17.293 17.293 0 0 1-.162-1.404 20.22 20.22 0 0 1-.054-1.476c0-.708.03-1.398.09-2.07.072-.672.168-1.29.288-1.854.132-.576.288-1.056.468-1.44l.432.432c-.384.18-.864.336-1.44.468-.564.12-1.182.216-1.854.288-.672.06-1.362.09-2.07.09-.492 0-.984-.018-1.476-.054-.48-.036-.948-.09-1.404-.162l.144-1.404c.636.108 1.26.186 1.872.234.612.048 1.224.072 1.836.072.792 0 1.578-.036 2.358-.108.792-.084 1.59-.186 2.394-.306l.09.09c-.12.804-.222 1.602-.306 2.394a25.64 25.64 0 0 0-.108 2.358c0 .612.024 1.224.072 1.836.048.612.126 1.236.234 1.872l-1.404.144Z" fill="currentColor"/>
</svg>