<svg fill="none" xmlns="http://www.w3.org/2000/svg" viewBox="0 0 44 44">
  <path d="M29.876 32.818V29.75H13.307v3.067H7.443v-8.116a5.644 5.644 0 0 1 1.733-3.94l.001-.003-1.695-.279a1.77 1.77 0 0 1-1.318-2.488 1.768 1.768 0 0 1 1.898-.998l-.01-.002 2.908.475c.046.009.089.02.127.033l-.006-.002 1.873-4.766h5.982l.447-2.232h5.579l.446 2.232h5.637l1.874 4.77a.922.922 0 0 1 .112-.03l.007-.002 2.91-.474a1.772 1.772 0 0 1 2.028 1.45l.001.01a1.77 1.77 0 0 1-1.445 2.026l-.01.002-2.355.386a5.653 5.653 0 0 1 1.617 3.826v3.454c0 .12-.014.236-.04.348l.002-.01v4.328l-5.87.002Zm-3.611-7.083a1.18 1.18 0 0 0 1.177 1.177h4.73a1.177 1.177 0 1 0 0-2.354h-4.728a1.181 1.181 0 0 0-1.177 1.177h-.002Zm-16.5 0a1.181 1.181 0 0 0 1.176 1.177h4.73a1.177 1.177 0 1 0 0-2.354h-4.729a1.18 1.18 0 0 0-1.177 1.176v.001Zm2.764-6.145h18.843c.031 0 .062.006.092.006l-1.86-4.748H14.397l-1.868 4.742Z" fill="#000"/>
  <path d="M29.876 32.818V29.75H13.307v3.067H7.443v-8.116a5.644 5.644 0 0 1 1.733-3.94l.001-.003-1.695-.279a1.77 1.77 0 0 1-1.318-2.488 1.768 1.768 0 0 1 1.898-.998l-.01-.002 2.908.475c.046.009.089.02.127.033l-.006-.002 1.873-4.766h5.982l.447-2.232h5.579l.446 2.232h5.637l1.874 4.77a.922.922 0 0 1 .112-.03l.007-.002 2.91-.474a1.772 1.772 0 0 1 2.028 1.45l.001.01a1.77 1.77 0 0 1-1.445 2.026l-.01.002-2.355.386a5.653 5.653 0 0 1 1.617 3.826v3.454c0 .12-.014.236-.04.348l.002-.01v4.328l-5.87.002Zm-3.611-7.083a1.18 1.18 0 0 0 1.177 1.177h4.73a1.177 1.177 0 1 0 0-2.354h-4.728a1.181 1.181 0 0 0-1.177 1.177h-.002Zm-16.5 0a1.181 1.181 0 0 0 1.176 1.177h4.73a1.177 1.177 0 1 0 0-2.354h-4.729a1.18 1.18 0 0 0-1.177 1.176v.001Zm2.764-6.145h18.843c.031 0 .062.006.092.006l-1.86-4.748H14.397l-1.868 4.742Z" fill="url(#a)"/>
  <defs>
    <linearGradient id="a" x1="-11.6" y1="35.697" x2="-1.764" y2=".104" gradientUnits="userSpaceOnUse">
      <stop stop-color="#DFAB53"/>
      <stop offset=".141" stop-color="#E6BE6B"/>
      <stop offset=".3" stop-color="#EFD487"/>
      <stop offset=".471" stop-color="#EBCA7A"/>
      <stop offset="1" stop-color="#DFAB53"/>
    </linearGradient>
  </defs>
</svg>