<svg xmlns="http://www.w3.org/2000/svg" width="44" height="44" fill="none"><path fill="url(#a)" d="M11.397 10.016A15.94 15.94 0 0 1 22 6c8.837 0 16 7.163 16 16a15.927 15.927 0 0 1-2.869 9.144L30.8 22h4a12.8 12.8 0 0 0-21.962-8.94l-1.44-3.042-.001-.002Zm21.206 23.968A15.94 15.94 0 0 1 22 38c-8.837 0-16-7.163-16-16 0-3.4 1.06-6.552 2.869-9.144L13.2 22h-4a12.8 12.8 0 0 0 21.962 8.94l1.44 3.042.001.002ZM16.4 25.2h8.8a.8.8 0 0 0 0-1.6h-6.4a4 4 0 1 1 0-8h1.6V14h3.2v1.6h4v3.2h-8.8a.8.8 0 1 0 0 1.6h6.4a4 4 0 1 1 0 8h-1.6V30h-3.2v-1.6h-4v-3.2Z"/><defs><linearGradient id="a" x1="6" x2="36.318" y1="21.333" y2="21.333" gradientUnits="userSpaceOnUse"><stop stop-color="#DFAB53"/><stop offset=".141" stop-color="#E6BE6B"/><stop offset=".3" stop-color="#EFD487"/><stop offset=".471" stop-color="#EBCA7A"/><stop offset="1" stop-color="#DFAB53"/></linearGradient></defs></svg>