<svg width="33" height="32" viewBox="0 0 33 32" fill="none" xmlns="http://www.w3.org/2000/svg">
<path d="M5.145 13.0042H7.9515V11.4147C7.9515 10.3827 8.5315 9.82572 9.5755 9.82572H13.693C14.737 9.82572 15.317 10.3827 15.317 11.4147V13.0037H17.822V11.4147C17.822 10.3827 18.402 9.82572 19.504 9.82572H23.3665C24.4685 9.82572 25.0485 10.3827 25.0485 11.4147V13.0037H27.8555V9.83722C27.8555 7.78422 26.7655 6.74072 24.7705 6.74072H8.23C6.2465 6.74072 5.145 7.78422 5.145 9.83722V13.0042ZM2.5 24.4407C2.5 25.0092 2.871 25.3687 3.451 25.3687H4.101C4.669 25.3687 5.04 25.0087 5.04 24.4407V22.7937C5.1675 22.8287 5.539 22.8517 5.8055 22.8517H27.2055C27.4725 22.8517 27.8325 22.8282 27.96 22.7937V24.4407C27.96 25.0092 28.331 25.3687 28.8995 25.3687H29.5605C30.129 25.3687 30.5 25.0087 30.5 24.4407V17.8407C30.5 15.7412 29.3285 14.5932 27.206 14.5932H5.794C3.6715 14.5932 2.5 15.7412 2.5 17.8407V24.4407Z" fill="url(#paint0_linear_1034_8710)"/>
<defs>
<linearGradient id="paint0_linear_1034_8710" x1="2.5" y1="15.6666" x2="29.0282" y2="15.6666" gradientUnits="userSpaceOnUse">
<stop stop-color="#DFAB53"/>
<stop offset="0.140622" stop-color="#E6BE6B"/>
<stop offset="0.3" stop-color="#EFD487"/>
<stop offset="0.470831" stop-color="#EBCA7A"/>
<stop offset="1" stop-color="#DFAB53"/>
</linearGradient>
</defs>
</svg>
