<svg xmlns="http://www.w3.org/2000/svg" fill="none" viewBox="0 0 126 54">
  <path fill="currentColor" fill-rule="evenodd" d="M73.28 21.98c-1.5 0-2.7.4-3.94 1 0-3.48.05-6.5.13-7.65L62.2 16.7v.64l.71.1c1.02.13 1.4.7 1.53 2.04.23 2.55.2 16.22 0 18.4 1.96.44 4.07.76 6.2.76 5.77 0 9.24-3.5 9.24-9.04 0-4.44-2.82-7.63-6.6-7.63Zm-2.53 15.55c-.42 0-.94-.06-1.24-.12a328.9 328.9 0 0 1-.17-13.38 4.92 4.92 0 0 1 1.7-.27c2.38 0 3.73 2.7 3.73 6.12 0 4.35-1.65 7.65-4.02 7.65ZM34.86 22.15l-1.13.3c-1-3.24-2.57-5.07-5.51-5.07h-3.77c-.18 2.07-.24 5.51-.22 9.1l2.54-.08c1.69-.06 2.4-1.3 2.8-3.12h.95v7.6h-.95c-.4-1.83-1.12-3.05-2.8-3.11l-2.53-.09c.02 2.73.1 5.05.22 6.43.17 2.02.73 2.91 2.19 3.12l1.3.14v.9h-12.3v-.9l1-.14c1.47-.2 2.02-1.1 2.2-3.12.27-3.33.32-10.26 0-14.13-.18-2.02-.73-2.91-2.2-3.12l-1-.13v-.91h19.11l.1 6.33Zm6.12-.35c5.44 0 8.13 3.62 8.13 8.38 0 4.65-3.05 8.47-8.48 8.47-5.43 0-8.14-3.62-8.14-8.38 0-4.65 3.05-8.47 8.5-8.47Zm-.28 1.03c-2.4 0-3.08 3.2-3.08 7.4 0 4.09 1.06 7.39 3.29 7.39 2.4 0 3.08-3.2 3.08-7.4 0-4.09-1.07-7.39-3.3-7.39Zm40.51 7.55c0-4.42 2.84-8.57 8.44-8.57 4.56 0 6.74 3.33 6.76 7.66H86.24c-.11 3.94 1.92 6.83 5.8 6.83 1.71 0 2.64-.41 3.67-1.18l.48.56c-1.12 1.53-3.48 3-6.6 3-4.91-.02-8.37-3.43-8.38-8.3Zm5.07-2.03 5.1-.11c.03-2.22-.33-5.38-2.17-5.38-1.85 0-2.89 3-2.93 5.49Zm23.2-1.58-.84.22c-.89-2.83-2.23-4.02-4.2-4.02-1.31 0-2.27.97-2.27 2.37 0 1.4 1.07 2.14 4.14 3.3 2.84 1.09 3.97 2.33 3.97 4.59 0 3.37-2.64 5.44-6.96 5.44-2.08 0-4.4-.45-5.74-.99l-.15-4.66.83-.22c1.2 3.27 2.75 4.46 4.8 4.46 1.73 0 2.7-1.22 2.7-2.52 0-1.26-.73-2.01-3.5-3-2.58-.9-4.45-2-4.45-4.84 0-2.74 2.48-5.1 6.57-5.1 1.9 0 3.7.33 4.92.88l.17 4.09Zm-47.95-.13c-2.2-1.45-4.58-.81-5.07-.03-.16 2.62-.13 6.62.06 8.63.12 1.34.5 1.92 1.52 2.05l1.31.1v.9H49.26v-.9l.71-.1c1.02-.13 1.4-.71 1.53-2.05.2-2.18.23-6.74 0-9.29-.12-1.33-.5-1.91-1.53-2.05l-.7-.09v-.64l7.24-1.38-.08 3.72c1.69-3.83 5.03-4.33 6.87-3.26l-1.77 4.4Z" clip-rule="evenodd"/>
</svg>