<svg width="33" height="32" viewBox="0 0 33 32" fill="none" xmlns="http://www.w3.org/2000/svg">
<path fill-rule="evenodd" clip-rule="evenodd" d="M9.5 6.73133C9.5 5.18267 16.5 4 16.5 4C16.5 4 23.5 5.18267 23.5 6.73133C23.5 8.796 22.2267 9.66667 22.2267 9.66667H10.7733C10.7733 9.66667 9.5 8.796 9.5 6.73133ZM17.5 7C17.5 7.26522 17.3946 7.51957 17.2071 7.70711C17.0196 7.89464 16.7652 8 16.5 8C16.2348 8 15.9804 7.89464 15.7929 7.70711C15.6054 7.51957 15.5 7.26522 15.5 7C15.5 6.73478 15.6054 6.48043 15.7929 6.29289C15.9804 6.10536 16.2348 6 16.5 6C16.7652 6 17.0196 6.10536 17.2071 6.29289C17.3946 6.48043 17.5 6.73478 17.5 7ZM21.7093 12.1867C22.636 11.4633 22.492 10.6667 22.492 10.6667H10.508C10.508 10.6667 10.3633 11.4633 11.2907 12.1867C11.12 12.9655 11.1261 13.7727 11.3085 14.5489C11.491 15.3251 11.8451 16.0505 12.345 16.6718C12.8448 17.293 13.4775 17.7943 14.1967 18.1387C14.9158 18.4831 15.703 18.6618 16.5003 18.6618C17.2977 18.6618 18.0849 18.4831 18.804 18.1387C19.5231 17.7943 20.1559 17.293 20.6557 16.6718C21.1555 16.0505 21.5097 15.3251 21.6922 14.5489C21.8746 13.7727 21.8807 12.9655 21.71 12.1867M16.5 13.3333C18.314 13.3333 19.5827 13.124 20.468 12.8227C20.4889 12.9898 20.4996 13.16 20.5 13.3333C20.4992 13.8797 20.3865 14.4201 20.1688 14.9212C19.9512 15.4223 19.6332 15.8735 19.2344 16.247C18.8356 16.6205 18.3646 16.9083 17.8503 17.0928C17.336 17.2772 16.7894 17.3543 16.2442 17.3194C15.6989 17.2845 15.1666 17.1382 14.6801 16.8896C14.1936 16.641 13.7631 16.2954 13.4153 15.8741C13.0675 15.4528 12.8097 14.9646 12.6577 14.4398C12.5058 13.915 12.463 13.3646 12.532 12.8227C13.418 13.124 14.6853 13.3333 16.5 13.3333ZM17.5 20C17.6768 20 17.8464 20.0702 17.9714 20.1953C18.0964 20.3203 18.1667 20.4899 18.1667 20.6667V21.588C18.1666 21.7118 18.1321 21.8331 18.067 21.9384C18.0019 22.0436 17.9087 22.1287 17.798 22.184L17.5 22.3333L17.8847 24.2567L20.7113 20.0167C20.9051 20.0167 21.0838 20.0176 21.2473 20.0193C24.8507 20.8413 28.5 22.5173 28.5 25.0387V28H4.5V25.0387C4.5 22.5173 8.30933 20.822 11.912 20C11.8993 20.0027 12.0347 20.0047 12.282 20.0067L15.138 24.29L15.5 22.3333L15.202 22.184C15.0913 22.1287 14.9981 22.0436 14.933 21.9384C14.8679 21.8331 14.8334 21.7118 14.8333 21.588V20.6667C14.8333 20.4899 14.9036 20.3203 15.0286 20.1953C15.1536 20.0702 15.3232 20 15.5 20H17.5ZM23.8333 23.5553C23.8333 23.5553 22.9447 23.1113 22.5 22.6667C22.0553 23.1113 21.1667 23.5553 21.1667 23.5553C21.1667 23.5553 21.632 25.3333 22.5 25.3333C23.368 25.3333 23.8333 23.5553 23.8333 23.5553Z" fill="url(#paint0_linear_1034_8715)"/>
<defs>
<linearGradient id="paint0_linear_1034_8715" x1="4.5" y1="15.5" x2="27.2385" y2="15.5" gradientUnits="userSpaceOnUse">
<stop stop-color="#DFAB53"/>
<stop offset="0.140622" stop-color="#E6BE6B"/>
<stop offset="0.3" stop-color="#EFD487"/>
<stop offset="0.470831" stop-color="#EBCA7A"/>
<stop offset="1" stop-color="#DFAB53"/>
</linearGradient>
</defs>
</svg>
