<svg width="33" height="32" viewBox="0 0 33 32" fill="none" xmlns="http://www.w3.org/2000/svg">
<path d="M21.4999 16C20.2149 16 18.9724 15.4263 17.9999 14.385C17.0543 13.3694 16.4768 12.015 16.3749 10.5725C16.2662 9.03375 16.7356 7.61875 17.6962 6.5875C18.6568 5.55625 19.9999 5 21.4999 5C22.9893 5 24.3362 5.56625 25.2937 6.595C26.2606 7.63375 26.7312 9.04625 26.6224 10.5719C26.5181 12.0163 25.9412 13.37 24.9974 14.3844C24.0274 15.4263 22.7856 16 21.4999 16ZM29.7393 27H13.2612C12.9962 27.0014 12.7345 26.942 12.4961 26.8264C12.2578 26.7108 12.0491 26.542 11.8862 26.3331C11.7134 26.1066 11.594 25.844 11.5371 25.5649C11.4802 25.2857 11.4871 24.9973 11.5574 24.7213C12.0837 22.6081 13.3874 20.8556 15.3274 19.6538C17.0493 18.5875 19.2412 18 21.4999 18C23.8031 18 25.9374 18.5625 27.6693 19.6281C29.6137 20.8238 30.9193 22.5863 31.4431 24.725C31.5125 25.0013 31.5187 25.2897 31.4611 25.5687C31.4035 25.8477 31.2837 26.11 31.1106 26.3363C30.9478 26.5442 30.7396 26.7121 30.5019 26.8272C30.2642 26.9422 30.0034 27.0014 29.7393 27ZM9.68743 16.25C7.48805 16.25 5.5543 14.205 5.37493 11.6919C5.28618 10.4044 5.68743 9.21375 6.49993 8.34063C7.30368 7.47625 8.43743 7 9.68743 7C10.9374 7 12.0624 7.47875 12.8706 8.34813C13.6893 9.22813 14.0893 10.4163 13.9956 11.6931C13.8162 14.2056 11.8831 16.25 9.68743 16.25ZM13.7912 18.2156C12.6918 17.6781 11.2649 17.4094 9.68805 17.4094C7.8468 17.4094 6.05868 17.8894 4.65243 18.7606C3.05805 19.75 1.98555 21.1906 1.55243 22.93C1.48904 23.1802 1.48305 23.4415 1.53489 23.6943C1.58673 23.9471 1.69507 24.185 1.8518 24.39C2.00052 24.5809 2.19104 24.7352 2.40872 24.8409C2.6264 24.9467 2.86543 25.0011 3.10743 25H10.0449C10.162 25 10.2754 24.9589 10.3653 24.8838C10.4552 24.8088 10.5159 24.7046 10.5368 24.5894C10.5437 24.55 10.5524 24.5106 10.5624 24.4719C11.0924 22.3431 12.3343 20.5444 14.1693 19.2331C14.2368 19.1845 14.2911 19.1198 14.3272 19.0448C14.3634 18.9699 14.3803 18.8871 14.3764 18.804C14.3725 18.7209 14.3479 18.6401 14.3048 18.5689C14.2618 18.4977 14.2017 18.4383 14.1299 18.3963C14.0318 18.3388 13.9193 18.2781 13.7912 18.2156Z" fill="url(#paint0_linear_1034_8705)"/>
<defs>
<linearGradient id="paint0_linear_1034_8705" x1="1.5" y1="15.5417" x2="29.9232" y2="15.5417" gradientUnits="userSpaceOnUse">
<stop stop-color="#DFAB53"/>
<stop offset="0.140622" stop-color="#E6BE6B"/>
<stop offset="0.3" stop-color="#EFD487"/>
<stop offset="0.470831" stop-color="#EBCA7A"/>
<stop offset="1" stop-color="#DFAB53"/>
</linearGradient>
</defs>
</svg>
