<svg fill="none" xmlns="http://www.w3.org/2000/svg" viewBox="0 0 326 64">
    <path d="M206.093 34.627V0h22.269v4.126h-17.385V14.98h16.36v4.126h-16.36v11.395h17.385v4.126h-22.269ZM247.396 34.627V4.273h-12.209V0h29.448v4.273h-12.209v30.354h-5.03ZM63.364 34.627l14.76-33.199A2.402 2.402 0 0 1 80.317 0h1.098c.948 0 1.807.558 2.194 1.425l14.807 33.202H93.22l-3.628-8.448H72.09l-3.578 8.448h-5.148ZM80.817 5.648l-6.913 16.405h13.972l-6.96-16.405h-.099ZM107.196 34.627V4.79H94.94V0h29.562v4.79h-12.256v29.837h-5.05ZM130.673 34.627V0h2.827c.886 0 1.7.488 2.118 1.27l12.116 22.65 12.067-22.646A2.403 2.403 0 0 1 161.921 0h2.726v34.627h-4.559V9.234L149.686 28.52a2.246 2.246 0 0 1-3.955.004L135.282 9.332v25.295h-4.609ZM182.262 42.638l1.095-3.812s4.338-.29 6.449-2.27c3.261-3.056 2.875-8.22 2.875-11.6V0h5.019v24.956c0 2.957.706 7.19-1.564 10.764-1.971 3.104-4.237 4.114-7.644 5.495-2.313.938-6.23 1.423-6.23 1.423ZM70.091 59.62v-4.007c-6.135.08-63.307.75-68.648.905-1.162 0-1.162.852-1.162 1.111 0 .258.259.956 1.033.956 8.319.138 62.746.955 68.777 1.034ZM255.909 59.62v-4.007c6.135.08 63.307.75 68.648.905 1.162 0 1.162.852 1.162 1.111 0 .258-.259.956-1.033.956-8.319.138-62.746.955-68.777 1.034ZM80.155 63.274l4.976-11.28h1.12l4.976 11.28h-1.36l-1.248-2.88h-5.872l-1.232 2.88h-1.36Zm5.52-9.744-2.448 5.76h4.928l-2.448-5.76h-.032Zm10.51 9.744-4.929-11.28h1.408l4.144 9.616 4.128-9.616h1.376l-4.944 11.28h-1.184Zm8.15 0v-11.28h1.312v11.28h-1.312Zm3.646 0 4.976-11.28h1.12l4.976 11.28h-1.36l-1.248-2.88h-5.872l-1.232 2.88h-1.36Zm5.52-9.744-2.448 5.76h4.928l-2.448-5.76h-.032Zm9.413 9.744V53.13h-4.096v-1.136h9.52v1.136h-4.096v10.144h-1.328Zm7.497 0v-11.28h1.312v11.28h-1.312Zm9.47.144c-1.045 0-1.957-.235-2.736-.704-.768-.48-1.365-1.152-1.792-2.016-.416-.864-.624-1.888-.624-3.072 0-1.184.208-2.208.624-3.072.416-.864 1.008-1.531 1.776-2 .779-.469 1.696-.704 2.752-.704 1.067 0 1.984.235 2.752.704.779.469 1.376 1.136 1.792 2 .427.853.64 1.872.64 3.056s-.213 2.213-.64 3.088c-.427.864-1.029 1.536-1.808 2.016-.768.469-1.68.704-2.736.704Zm0-1.168c1.205 0 2.139-.405 2.8-1.216.661-.811.992-1.947.992-3.408 0-1.461-.331-2.592-.992-3.392-.661-.811-1.595-1.216-2.8-1.216-1.184 0-2.107.405-2.768 1.216-.661.8-.992 1.931-.992 3.392 0 1.451.331 2.587.992 3.408.661.811 1.584 1.216 2.768 1.216Zm8.17 1.024v-11.28h1.024l6.8 9.072v-9.072h1.216v11.28h-.992l-6.816-9.104v9.104h-1.232Zm20.657.16c-1.205 0-2.16-.277-2.864-.832-.693-.565-1.04-1.301-1.04-2.208 0-.725.203-1.355.608-1.888.405-.544.965-1.029 1.68-1.456l.096-.048c-.416-.437-.715-.853-.896-1.248a2.995 2.995 0 0 1-.272-1.232c0-.8.283-1.445.848-1.936.576-.501 1.333-.752 2.272-.752.875 0 1.568.224 2.08.672.512.437.768 1.035.768 1.792 0 .576-.165 1.109-.496 1.6-.32.48-.859.944-1.616 1.392l2.16 2.304c.203-.427.363-.901.48-1.424a9.331 9.331 0 0 0 .24-1.664h1.664c-.064 1.653-.464 3.072-1.2 4.256l2.496 2.512h-2.432l-1.152-1.216a5.252 5.252 0 0 1-1.568 1.008 4.768 4.768 0 0 1-1.856.368Zm.432-10.176c-.384 0-.693.112-.928.336-.235.213-.352.507-.352.88 0 .277.064.539.192.784.139.235.379.544.72.928.565-.331.96-.629 1.184-.896.235-.267.352-.571.352-.912 0-.363-.107-.64-.32-.832-.213-.192-.496-.288-.848-.288Zm-.32 8.592c.864 0 1.595-.299 2.192-.896l-2.72-2.816c-.544.309-.933.624-1.168.944-.224.32-.336.704-.336 1.152 0 .501.171.896.512 1.184.352.288.859.432 1.52.432Zm16.183 1.424V57.93l-4.32-5.936h1.536l3.472 4.784 3.456-4.784h1.488l-4.32 5.968v5.312h-1.312Zm5.316 0 4.976-11.28h1.12l4.976 11.28h-1.36l-1.248-2.88h-5.872l-1.232 2.88h-1.36Zm5.52-9.744-2.448 5.76h4.928l-2.448-5.76h-.032Zm12.557 9.888c-1.11 0-2.059-.235-2.848-.704-.79-.469-1.398-1.136-1.824-2-.416-.864-.624-1.893-.624-3.088 0-1.184.208-2.208.624-3.072.426-.864 1.034-1.531 1.824-2 .789-.469 1.738-.704 2.848-.704.778 0 1.493.123 2.144.368a4.504 4.504 0 0 1 1.68 1.072l-.512 1.072c-.491-.459-1.003-.789-1.536-.992a4.583 4.583 0 0 0-1.744-.32c-1.27 0-2.24.4-2.912 1.2-.672.8-1.008 1.925-1.008 3.376 0 1.461.336 2.592 1.008 3.392.672.8 1.642 1.2 2.912 1.2.64 0 1.221-.101 1.744-.304.533-.213 1.045-.549 1.536-1.008l.512 1.072a4.782 4.782 0 0 1-1.68 1.072 6.043 6.043 0 0 1-2.144.368Zm6.525-.144v-11.28h1.312v4.992h6.768v-4.992h1.312v11.28h-1.312v-5.152h-6.768v5.152h-1.312Zm15.58 0V53.13h-4.096v-1.136h9.52v1.136h-4.096v10.144h-1.328Zm10.755.144c-.886 0-1.686-.112-2.4-.336A5.562 5.562 0 0 1 237 62.074l.464-1.056a5.972 5.972 0 0 0 1.712.928c.597.203 1.29.304 2.08.304.96 0 1.669-.176 2.128-.528.469-.363.704-.837.704-1.424 0-.469-.171-.843-.512-1.12-.331-.277-.891-.496-1.68-.656l-1.664-.336c-1.003-.213-1.755-.56-2.256-1.04-.491-.491-.736-1.141-.736-1.952 0-.672.17-1.259.512-1.76.352-.501.837-.891 1.456-1.168.618-.277 1.333-.416 2.144-.416.757 0 1.461.123 2.112.368.65.235 1.2.576 1.648 1.024l-.464 1.024c-.48-.437-.987-.752-1.52-.944-.534-.203-1.131-.304-1.792-.304-.843 0-1.515.197-2.016.592-.502.384-.752.896-.752 1.536 0 .512.154.917.464 1.216.32.299.837.517 1.552.656l1.664.352c1.077.224 1.872.565 2.384 1.024.522.448.784 1.061.784 1.84 0 .629-.171 1.184-.512 1.664-.331.48-.811.853-1.44 1.12-.619.267-1.355.4-2.208.4Z" fill="currentColor"/>
</svg>