<svg fill="none" xmlns="http://www.w3.org/2000/svg" viewBox="0 0 32 32">
  <path d="m23.333 19.016-.166-1.831-6.029-3.42s.054-1.161 0-2.873C17.08 9.817 16.695 8.796 16.052 8l.003.004h-.108c-.64.791-1.024 1.805-1.085 2.874v.014c-.054 1.711 0 2.873 0 2.873l-6.028 3.42-.166 1.831 4.075-1.382 2.065-.388a17.43 17.43 0 0 0 .433 4.761l-.021-.108-1.614.73v1.198l2.082-.533c.092.208.178.377.27.541l-.012-.023V24c.019-.03.036-.064.055-.095.019.03.036.064.055.095v-.188c.08-.14.166-.31.244-.484l.014-.034 2.082.533V22.63l-1.614-.73c.274-1.155.43-2.481.43-3.848 0-.284-.006-.565-.02-.844l.003.038 2.065.388 4.074 1.383Z" fill="currentColor"/>
</svg>