<svg fill="none" xmlns="http://www.w3.org/2000/svg" viewBox="0 0 32 32">
  <g clip-path="url(#a)">
    <path fill-rule="evenodd" clip-rule="evenodd" d="m17.637 16.352-2.801.75-1.519-.501c-.879-.29-1.906-.537-2.438-.586-.54-.05-.864.13-.864.13l1.41.623v.442s-.562-.229-1.157-.508c-1.25-.587-1.542-.622-1.962-.23-1.36 1.268 1.75 3.215 8.017 5.019 3.742 1.077 6.11 1.542 6.7 1.317.547-.21.655-.555.304-.97l-.297-.35.485-.847c.523-.915.57-1.098.328-1.297-.411-.34-.79-.29-1.822.234l-1.027.523-1.058-.546c-.582-.3-1.058-.575-1.059-.609 0-.034.759-.552 1.686-1.15 1.84-1.189 1.966-1.365 1.3-1.835-.664-.47-1.193-.42-4.226.391Zm-6.195 4.23c-.086.248-.317 2.053-.317 2.479 0 .261.129.503.425.797.673.668.865.594 2.12-.82.605-.682 1.08-1.303 1.054-1.379-.026-.076-.64-.348-1.365-.605-1.884-.666-1.853-.658-1.917-.473Z" fill="currentColor"/>
  </g>
  <defs>
    <clipPath id="a">
      <path fill="#fff" transform="translate(8 12)" d="M0 0h16v16H0z"/>
    </clipPath>
  </defs>
</svg>