<svg fill="none" xmlns="http://www.w3.org/2000/svg" viewBox="0 0 44 44">
  <path d="M36.332 28.033 36 24.369l-12.057-6.84s.108-2.322 0-5.745c-.119-2.151-.886-4.192-2.175-5.784l.006.008h-.216c-1.281 1.583-2.046 3.61-2.17 5.748v.028c-.108 3.422 0 5.746 0 5.746L7.332 24.37 7 28.032l8.15-2.765 4.13-.776a34.863 34.863 0 0 0 .867 9.522l-.042-.216-3.228 1.46v2.397l4.164-1.067c.184.416.355.755.54 1.083l-.025-.047V38c.038-.061.073-.128.11-.19.038.06.072.127.111.19v-.376c.16-.28.331-.619.488-.968l.027-.068 4.164 1.067v-2.397l-3.227-1.46c.548-2.31.861-4.963.861-7.697 0-.566-.013-1.129-.04-1.688l.003.078 4.132.776 8.148 2.764v.002Z" fill="#fff"/>
  <path d="M36.332 28.033 36 24.369l-12.057-6.84s.108-2.322 0-5.745c-.119-2.151-.886-4.192-2.175-5.784l.006.008h-.216c-1.281 1.583-2.046 3.61-2.17 5.748v.028c-.108 3.422 0 5.746 0 5.746L7.332 24.37 7 28.032l8.15-2.765 4.13-.776a34.863 34.863 0 0 0 .867 9.522l-.042-.216-3.228 1.46v2.397l4.164-1.067c.184.416.355.755.54 1.083l-.025-.047V38c.038-.061.073-.128.11-.19.038.06.072.127.111.19v-.376c.16-.28.331-.619.488-.968l.027-.068 4.164 1.067v-2.397l-3.227-1.46c.548-2.31.861-4.963.861-7.697 0-.566-.013-1.129-.04-1.688l.003.078 4.132.776 8.148 2.764v.002Z" fill="url(#a)"/>
  <defs>
    <linearGradient id="a" x1="-9.133" y1="42.128" x2="10.872" y2="-4.156" gradientUnits="userSpaceOnUse">
      <stop stop-color="#DFAB53"/>
      <stop offset=".141" stop-color="#E6BE6B"/>
      <stop offset=".3" stop-color="#EFD487"/>
      <stop offset=".471" stop-color="#EBCA7A"/>
      <stop offset="1" stop-color="#DFAB53"/>
    </linearGradient>
  </defs>
</svg>