<svg width="260" height="204" viewBox="0 0 260 204" fill="none" xmlns="http://www.w3.org/2000/svg">
<g clip-path="url(#clip0_1032_7385)">
<rect width="259.2" height="204" transform="translate(0.200195)" fill="#181715"/>
<path opacity="0.05" d="M225.973 150.313C236.798 165.948 240.971 167.668 244.393 170.398C247.241 172.672 257.263 177.016 264.86 182.85M185.62 154.112C185.319 155.315 185.052 156.723 184.85 158.299M184.85 158.299C183.351 169.954 185.355 190.798 202.824 206.012C227.611 227.601 252.217 220.494 255.788 219.547C260.661 218.253 281.724 203.448 269.071 186.545C267.817 185.256 266.388 184.023 264.86 182.85M184.85 158.299C189.535 171.321 208.861 196.881 248.681 194.941C259.359 193.637 263.619 185.284 264.828 182.914L264.86 182.85M211.868 97.8213C219.996 80.6292 219.398 76.1549 220.053 71.8268C220.597 68.2231 219.349 57.3718 220.602 47.8751M235.335 130.869C236.527 130.528 237.88 130.055 239.345 129.442M239.345 129.442C250.189 124.912 267.238 112.755 271.679 90.0196C277.982 57.7587 259.525 40.0025 256.919 37.3842C253.362 33.8104 230.009 22.9715 221.697 42.3817C221.208 44.1115 220.854 45.9659 220.602 47.8751M239.345 129.442C248.28 118.873 260.753 89.3567 239.163 55.8416C232.695 47.2458 223.33 47.7332 220.674 47.8714L220.602 47.8751M173.661 136.774C154.708 138.331 151.132 141.086 147.057 142.684C143.664 144.014 134.891 150.521 126.039 154.183M190.548 99.928C189.656 99.0657 188.57 98.131 187.307 97.1677M187.307 97.1677C177.962 90.0423 158.909 81.3561 136.999 88.877C105.909 99.5491 99.7603 124.412 98.7957 127.978C97.4791 132.845 99.7689 158.489 120.735 155.982C122.477 155.541 124.26 154.919 126.039 154.183M187.307 97.1677C173.687 94.7142 141.888 98.671 123.658 134.126C119.448 144.026 124.552 151.892 126 154.123L126.039 154.183M223.607 152.25C210.281 163.16 190.634 161.202 179.724 147.876C168.814 134.55 170.772 114.903 184.098 103.993C197.424 93.0823 217.071 95.0407 227.981 108.367C238.892 121.693 236.933 141.34 223.607 152.25ZM217.022 144.207C208.138 151.48 195.04 150.175 187.767 141.291C180.493 132.407 181.799 119.309 190.683 112.035C199.567 104.762 212.665 106.068 219.938 114.951C227.212 123.835 225.906 136.934 217.022 144.207ZM210.438 136.164C205.996 139.801 199.446 139.148 195.81 134.706C192.173 130.264 192.826 123.715 197.268 120.078C201.71 116.442 208.259 117.094 211.896 121.536C215.532 125.978 214.879 132.527 210.438 136.164Z" stroke="url(#paint0_linear_1032_7385)" stroke-width="2.49758"/>
<path d="M235.296 125.031C254.251 126.56 258.226 124.42 262.506 123.503C266.07 122.739 275.78 117.737 285.107 115.554M212.673 158.661C213.413 159.656 214.333 160.754 215.424 161.909M215.424 161.909C223.494 170.452 240.891 182.106 263.729 178.228C296.136 172.725 306.225 149.184 307.753 145.821C309.84 141.231 311.728 115.554 290.633 114.637C288.842 114.79 286.982 115.115 285.107 115.554M215.424 161.909C228.469 166.534 260.488 167.772 284.212 135.732C289.968 126.644 286.204 118.056 285.136 115.62L285.107 115.554M185.745 102.692C177.592 85.5122 173.751 83.1403 170.817 79.8922C168.374 77.1877 159.186 71.2798 152.633 64.2937M226.182 105.47C226.673 104.331 227.164 102.985 227.619 101.463M227.619 101.463C230.983 90.2032 232.376 69.31 217.599 51.4707C196.629 26.157 171.198 29.1902 167.521 29.5478C162.503 30.036 139.322 41.2393 149.075 59.9667C150.104 61.4411 151.315 62.8892 152.633 64.2937M227.619 101.463C225.101 87.8541 210.164 59.5051 170.554 54.9793C159.806 54.5387 154.251 62.093 152.675 64.2359L152.633 64.2937M191.682 156.931C180.88 172.582 180.747 177.094 179.401 181.26C178.28 184.728 177.758 195.638 174.984 204.807M173.869 120.523C172.637 120.667 171.226 120.915 169.681 121.282M169.681 121.282C158.248 123.999 139.457 133.239 131.396 154.956C119.959 185.773 135.301 206.281 137.449 209.286C140.381 213.388 161.674 227.861 173.016 210.051C173.778 208.423 174.427 206.65 174.984 204.807M169.681 121.282C159.154 130.267 142.072 157.378 157.957 193.943C162.95 203.472 172.269 204.506 174.913 204.799L174.984 204.807M235.296 128.089C235.296 145.311 221.335 159.273 204.112 159.273C186.89 159.273 172.928 145.311 172.928 128.089C172.928 110.866 186.89 96.9047 204.112 96.9047C221.335 96.9047 235.296 110.866 235.296 128.089ZM224.902 128.089C224.902 139.57 215.594 148.878 204.112 148.878C192.631 148.878 183.323 139.57 183.323 128.089C183.323 116.607 192.631 107.299 204.112 107.299C215.594 107.299 224.902 116.607 224.902 128.089ZM214.507 128.089C214.507 133.83 209.853 138.483 204.112 138.483C198.372 138.483 193.718 133.83 193.718 128.089C193.718 122.348 198.372 117.694 204.112 117.694C209.853 117.694 214.507 122.348 214.507 128.089Z" stroke="url(#paint1_linear_1032_7385)" stroke-width="2.49758"/>
<rect x="1" y="68" width="258" height="136" fill="url(#paint2_linear_1032_7385)"/>
</g>
<defs>
<linearGradient id="paint0_linear_1032_7385" x1="161.357" y1="63.5132" x2="270.448" y2="196.76" gradientUnits="userSpaceOnUse">
<stop stop-color="#DFAB53"/>
<stop offset="0.140622" stop-color="#E6BE6B"/>
<stop offset="0.3" stop-color="#EFD487"/>
<stop offset="0.470831" stop-color="#EBCA7A"/>
<stop offset="1" stop-color="#DFAB53"/>
</linearGradient>
<linearGradient id="paint1_linear_1032_7385" x1="127.201" y1="120.042" x2="299.409" y2="120.042" gradientUnits="userSpaceOnUse">
<stop stop-color="#DFAB53"/>
<stop offset="0.140622" stop-color="#E6BE6B"/>
<stop offset="0.3" stop-color="#EFD487"/>
<stop offset="0.470831" stop-color="#EBCA7A"/>
<stop offset="1" stop-color="#DFAB53"/>
</linearGradient>
<linearGradient id="paint2_linear_1032_7385" x1="130" y1="68" x2="130" y2="204" gradientUnits="userSpaceOnUse">
<stop stop-color="#181715" stop-opacity="0"/>
<stop offset="0.0666667" stop-color="#181715" stop-opacity="0.01"/>
<stop offset="0.133333" stop-color="#181715" stop-opacity="0.03551"/>
<stop offset="0.2" stop-color="#181715" stop-opacity="0.0816599"/>
<stop offset="0.266667" stop-color="#181715" stop-opacity="0.147411"/>
<stop offset="0.333333" stop-color="#181715" stop-opacity="0.231775"/>
<stop offset="0.4" stop-color="#181715" stop-opacity="0.331884"/>
<stop offset="0.466667" stop-color="#181715" stop-opacity="0.442691"/>
<stop offset="0.533333" stop-color="#181715" stop-opacity="0.557309"/>
<stop offset="0.6" stop-color="#181715" stop-opacity="0.668116"/>
<stop offset="0.666667" stop-color="#181715" stop-opacity="0.768225"/>
<stop offset="0.733333" stop-color="#181715" stop-opacity="0.852589"/>
<stop offset="0.8" stop-color="#181715" stop-opacity="0.91834"/>
<stop offset="0.866667" stop-color="#181715" stop-opacity="0.96449"/>
<stop offset="0.933333" stop-color="#181715" stop-opacity="0.991353"/>
<stop offset="1" stop-color="#181715"/>
</linearGradient>
<clipPath id="clip0_1032_7385">
<rect width="259.2" height="204" fill="white" transform="translate(0.200195)"/>
</clipPath>
</defs>
</svg>
