<svg width="260" height="204" viewBox="0 0 260 204" fill="none" xmlns="http://www.w3.org/2000/svg">
<g clip-path="url(#clip0_1032_7379)">
<rect width="259.2" height="204" fill="#181715"/>
<g opacity="0.05">
<path d="M114.617 169.673L56 111.51C87.7832 112.803 152.444 115.388 156.82 115.388C157.85 113.855 159.135 110.807 156.147 110.736C156.111 110.736 156.075 110.735 156.039 110.735H151.591C150.207 110.735 149.531 109.236 150.612 108.371C151.664 107.529 152.98 106.675 154.476 106.082C158.383 104.531 193.553 98.3265 221.689 98.3265C223.252 98.3265 196.68 96 195.117 96C193.553 96 200.587 89.7959 213.092 89.0204C225.597 88.2449 252.951 86.6939 271.709 86.6939C274.835 86.6939 275.617 85.1429 277.961 82.0408C279.837 79.5592 288.121 66.5306 292.029 60.3265H281.869C281.087 59.551 281.244 58 288.121 58H313.913C315.997 59.034 318.602 61.102 312.35 61.102H302.189L294.374 87.4694C301.929 89.2789 318.133 95.6898 322.51 106.857C323.724 107.761 324.821 108.548 325.845 109.223C326.539 109.681 327.253 110.117 327.98 110.538C329.204 111.123 330.539 111.712 331.888 112.286C332.68 112.623 333.358 113.106 333.927 113.686C338.545 116.049 343.071 118.501 346.141 122.549C348.752 125.991 351.33 129.438 352.99 131.673C359.243 136.844 372.06 147.959 373.311 151.061C374.279 153.464 375.811 161.296 376.889 167.347C377.202 169.107 377.477 170.716 377.688 171.997L114.617 169.673Z" fill="#181715"/>
<path d="M378 172L377.688 171.997M56 111.51L114.617 169.673L377.688 171.997M56 111.51C87.7832 112.803 152.444 115.388 156.82 115.388M56 111.51C66.6812 115.388 90.0757 123.143 98.2039 123.143C108.364 123.143 124.777 125.469 131.029 127.796C137.282 130.122 177.141 146.408 186.519 146.408C195.898 146.408 238.884 144.857 245.917 148.735C252.951 152.612 269.364 165.02 277.961 165.796C284.839 166.416 346.779 167.088 376.889 167.347M156.82 115.388C188.083 116.68 256.859 120.816 281.869 127.02M156.82 115.388C157.862 113.837 159.165 110.735 156.039 110.735M281.869 127.02C306.879 133.224 339.704 132.707 352.99 131.673M281.869 127.02C295.676 134.776 327.668 150.441 345.175 151.061C362.682 151.682 371.227 151.32 373.311 151.061M352.99 131.673C359.243 136.844 372.06 147.959 373.311 151.061M352.99 131.673C351.33 129.438 348.752 125.991 346.141 122.549C341.237 116.083 332.621 113.69 325.845 109.223C324.821 108.548 323.724 107.761 322.51 106.857M373.311 151.061C374.279 153.464 375.811 161.296 376.889 167.347M377.688 171.997C377.477 170.716 377.202 169.107 376.889 167.347M156.039 110.735C154.529 110.735 152.958 110.735 151.591 110.735C150.207 110.735 149.531 109.236 150.612 108.371C151.664 107.529 152.98 106.675 154.476 106.082C158.383 104.531 193.553 98.3265 221.689 98.3265M156.039 110.735C200.327 111.252 297.969 114.612 334.233 123.918C337.359 123.918 337.359 114.612 331.888 112.286C327.512 110.424 323.291 108.408 322.51 106.857M221.689 98.3265C223.252 98.3265 196.68 96 195.117 96C193.553 96 200.587 89.7959 213.092 89.0204C225.597 88.2449 252.951 86.6939 271.709 86.6939C274.835 86.6939 275.616 85.1429 277.961 82.0408C279.837 79.5592 288.121 66.5306 292.029 60.3265H281.869C281.087 59.551 281.244 58 288.121 58C294.999 58 308.181 58 313.913 58C315.997 59.034 318.602 61.102 312.35 61.102C306.097 61.102 302.971 61.102 302.189 61.102L294.374 87.4694C301.929 89.2789 318.133 95.6898 322.51 106.857M221.689 98.3265C247.741 98.3265 311.255 100.653 322.51 106.857" stroke="url(#paint0_linear_1032_7379)" stroke-width="3.06283"/>
</g>
<path d="M83.3398 160.796L28 105.694C58.0065 106.918 119.052 109.367 123.184 109.367C124.157 107.915 125.369 105.028 122.548 104.96C122.514 104.96 122.48 104.96 122.447 104.959H118.25C116.94 104.959 116.3 103.542 117.321 102.722C118.314 101.923 119.558 101.114 120.971 100.551C124.66 99.0816 157.864 93.2041 184.427 93.2041C185.903 93.2041 160.816 91 159.34 91C157.864 91 164.505 85.1224 176.311 84.3878C188.117 83.6531 213.942 82.1837 231.651 82.1837C234.602 82.1837 235.34 80.7143 237.553 77.7755C239.324 75.4245 247.146 63.0816 250.835 57.2041H241.243C240.505 56.4694 240.652 55 247.146 55H271.495C273.463 55.9796 275.922 57.9388 270.019 57.9388H260.427L253.049 82.9184C260.181 84.6327 275.48 90.7061 279.612 101.286C280.738 102.127 281.756 102.86 282.708 103.492C283.38 103.938 284.071 104.363 284.775 104.772C285.931 105.327 287.191 105.885 288.466 106.429C289.219 106.75 289.862 107.211 290.402 107.766C294.769 110.014 299.047 112.347 301.946 116.184C304.403 119.434 306.826 122.685 308.388 124.796C314.291 129.694 326.392 140.224 327.573 143.163C328.487 145.44 329.934 152.859 330.951 158.592C331.247 160.259 331.506 161.784 331.706 162.997L83.3398 160.796Z" fill="#181715"/>
<path d="M332 163L331.706 162.997M28 105.694L83.3398 160.796L331.706 162.997M28 105.694C58.0065 106.918 119.052 109.367 123.184 109.367M28 105.694C38.0841 109.367 60.1709 116.714 67.8447 116.714C77.4369 116.714 92.932 118.918 98.835 121.122C104.738 123.327 142.369 138.755 151.223 138.755C160.078 138.755 200.66 137.286 207.301 140.959C213.942 144.633 229.437 156.388 237.553 157.122C244.047 157.71 302.524 158.347 330.951 158.592M123.184 109.367C152.699 110.592 217.631 114.51 241.243 120.388M123.184 109.367C124.168 107.898 125.398 104.959 122.447 104.959M241.243 120.388C264.854 126.265 295.845 125.776 308.388 124.796M241.243 120.388C254.278 127.735 284.482 142.576 301.01 143.163C317.538 143.751 325.605 143.408 327.573 143.163M308.388 124.796C314.291 129.694 326.392 140.224 327.573 143.163M308.388 124.796C306.826 122.685 304.403 119.434 301.946 116.184C297.303 110.04 289.124 107.752 282.708 103.492C281.756 102.86 280.738 102.127 279.612 101.286M327.573 143.163C328.487 145.44 329.934 152.859 330.951 158.592M331.706 162.997C331.506 161.784 331.247 160.259 330.951 158.592M122.447 104.959C121.022 104.959 119.54 104.959 118.25 104.959C116.94 104.959 116.3 103.542 117.321 102.722C118.314 101.923 119.558 101.114 120.971 100.551C124.66 99.0816 157.864 93.2041 184.427 93.2041M122.447 104.959C164.259 105.449 256.443 108.633 290.68 117.449C293.631 117.449 293.631 108.633 288.466 106.429C284.334 104.665 280.35 102.755 279.612 101.286M184.427 93.2041C185.903 93.2041 160.816 91 159.34 91C157.864 91 164.505 85.1224 176.311 84.3878C188.117 83.6531 213.942 82.1837 231.651 82.1837C234.602 82.1837 235.34 80.7143 237.553 77.7755C239.324 75.4245 247.146 63.0816 250.835 57.2041H241.243C240.505 56.4694 240.652 55 247.146 55C253.639 55 266.084 55 271.495 55C273.463 55.9796 275.922 57.9388 270.019 57.9388C264.117 57.9388 261.165 57.9388 260.427 57.9388L253.049 82.9184C260.181 84.6327 275.48 90.7061 279.612 101.286M184.427 93.2041C209.023 93.2041 268.986 95.4082 279.612 101.286" stroke="url(#paint1_linear_1032_7379)" stroke-width="2.9"/>
<rect y="68" width="259" height="136" fill="url(#paint2_linear_1032_7379)"/>
</g>
<defs>
<linearGradient id="paint0_linear_1032_7379" x1="56" y1="112.625" x2="361.074" y2="112.625" gradientUnits="userSpaceOnUse">
<stop stop-color="#DFAB53"/>
<stop offset="0.140622" stop-color="#E6BE6B"/>
<stop offset="0.3" stop-color="#EFD487"/>
<stop offset="0.470831" stop-color="#EBCA7A"/>
<stop offset="1" stop-color="#DFAB53"/>
</linearGradient>
<linearGradient id="paint1_linear_1032_7379" x1="28" y1="106.75" x2="316.021" y2="106.75" gradientUnits="userSpaceOnUse">
<stop stop-color="#DFAB53"/>
<stop offset="0.140622" stop-color="#E6BE6B"/>
<stop offset="0.3" stop-color="#EFD487"/>
<stop offset="0.470831" stop-color="#EBCA7A"/>
<stop offset="1" stop-color="#DFAB53"/>
</linearGradient>
<linearGradient id="paint2_linear_1032_7379" x1="129.5" y1="68" x2="129.5" y2="204" gradientUnits="userSpaceOnUse">
<stop stop-color="#181715" stop-opacity="0"/>
<stop offset="0.0666667" stop-color="#181715" stop-opacity="0.01"/>
<stop offset="0.133333" stop-color="#181715" stop-opacity="0.03551"/>
<stop offset="0.2" stop-color="#181715" stop-opacity="0.0816599"/>
<stop offset="0.266667" stop-color="#181715" stop-opacity="0.147411"/>
<stop offset="0.333333" stop-color="#181715" stop-opacity="0.231775"/>
<stop offset="0.4" stop-color="#181715" stop-opacity="0.331884"/>
<stop offset="0.466667" stop-color="#181715" stop-opacity="0.442691"/>
<stop offset="0.533333" stop-color="#181715" stop-opacity="0.557309"/>
<stop offset="0.6" stop-color="#181715" stop-opacity="0.668116"/>
<stop offset="0.666667" stop-color="#181715" stop-opacity="0.768225"/>
<stop offset="0.733333" stop-color="#181715" stop-opacity="0.852589"/>
<stop offset="0.8" stop-color="#181715" stop-opacity="0.91834"/>
<stop offset="0.866667" stop-color="#181715" stop-opacity="0.96449"/>
<stop offset="0.933333" stop-color="#181715" stop-opacity="0.991353"/>
<stop offset="1" stop-color="#181715"/>
</linearGradient>
<clipPath id="clip0_1032_7379">
<rect width="259.2" height="204" fill="white"/>
</clipPath>
</defs>
</svg>
