<svg width="260" height="204" viewBox="0 0 260 204" fill="none" xmlns="http://www.w3.org/2000/svg">
<g clip-path="url(#clip0_1032_7609)">
<rect width="259.2" height="204" transform="translate(0.400391)" fill="#181715"/>
<path d="M322.637 113.609L321.374 113.648C321.395 114.331 321.955 114.873 322.637 114.873V113.609ZM322.201 99.6648L323.464 99.6253C323.443 98.9431 322.884 98.4011 322.201 98.4011V99.6648ZM279.497 99.6648V98.4011C279.185 98.4011 278.884 98.5167 278.652 98.7255L279.497 99.6648ZM262.067 115.352L262.082 116.616C262.389 116.612 262.684 116.497 262.913 116.291L262.067 115.352ZM219.16 115.788C219.16 119.51 222.177 122.527 225.9 122.527C229.622 122.527 232.639 119.51 232.639 115.788C232.639 112.065 229.622 109.048 225.9 109.048C222.177 109.048 219.16 112.065 219.16 115.788ZM199.754 68.7263V67.4626C199.057 67.4626 198.491 68.0283 198.491 68.7263H199.754ZM199.754 109.251V110.515C200.452 110.515 201.018 109.949 201.018 109.251H199.754ZM109.118 109.251V107.988C108.782 107.988 108.461 108.121 108.224 108.358L109.118 109.251ZM92.1231 126.246V127.509C92.4583 127.509 92.7797 127.376 93.0167 127.139L92.1231 126.246ZM40.065 126.246C40.065 129.968 43.0825 132.985 46.8047 132.985C50.5269 132.985 53.5444 129.968 53.5444 126.246C53.5444 122.524 50.5269 119.506 46.8047 119.506C43.0825 119.506 40.065 122.524 40.065 126.246ZM299.978 53.4749H298.714C298.714 54.1728 299.28 54.7385 299.978 54.7385V53.4749ZM299.978 39.095H301.242C301.242 38.3971 300.676 37.8313 299.978 37.8313V39.095ZM274.268 39.095V37.8313C273.933 37.8313 273.612 37.9644 273.375 38.2014L274.268 39.095ZM259.888 53.4749V54.7385C260.224 54.7385 260.545 54.6054 260.782 54.3684L259.888 53.4749ZM163.587 53.4749H162.323C162.323 54.1728 162.889 54.7385 163.587 54.7385V53.4749ZM163.587 39.095H164.851C164.851 38.3971 164.285 37.8313 163.587 37.8313V39.095ZM106.503 39.095V37.8313C106.168 37.8313 105.846 37.9644 105.609 38.2014L106.503 39.095ZM90.3801 55.2179V56.4816C90.7153 56.4816 91.0367 56.3484 91.2737 56.1114L90.3801 55.2179ZM43.1153 55.2179C43.1153 58.9401 46.1328 61.9575 49.855 61.9575C53.5772 61.9575 56.5946 58.9401 56.5946 55.2179C56.5946 51.4957 53.5772 48.4782 49.855 48.4782C46.1328 48.4782 43.1153 51.4957 43.1153 55.2179ZM326.123 30.8156H324.859C324.859 31.5136 325.425 32.0793 326.123 32.0793V30.8156ZM326.123 16H327.387C327.387 15.3021 326.821 14.7363 326.123 14.7363V16ZM262.067 16V14.7363C261.732 14.7363 261.411 14.8695 261.174 15.1064L262.067 16ZM245.509 32.5587V33.8223C245.844 33.8223 246.165 33.6892 246.402 33.4522L245.509 32.5587ZM172.97 32.5587C172.97 36.2809 175.988 39.2983 179.71 39.2983C183.432 39.2983 186.449 36.2809 186.449 32.5587C186.449 28.8364 183.432 25.819 179.71 25.819C175.988 25.819 172.97 28.8364 172.97 32.5587ZM311.54 159.363C311.54 163.085 314.557 166.103 318.28 166.103C322.002 166.103 325.019 163.085 325.019 159.363C325.019 155.641 322.002 152.623 318.28 152.623C314.557 152.623 311.54 155.641 311.54 159.363ZM281.24 171.128H279.977C279.977 171.826 280.543 172.392 281.24 172.392V171.128ZM281.24 158.927H282.504C282.504 158.229 281.938 157.664 281.24 157.664V158.927ZM218.492 158.927V157.664C218.157 157.664 217.835 157.797 217.598 158.034L218.492 158.927ZM198.68 172C198.68 175.722 201.697 178.74 205.419 178.74C209.141 178.74 212.159 175.722 212.159 172C212.159 168.278 209.141 165.26 205.419 165.26C201.697 165.26 198.68 168.278 198.68 172ZM333.967 94.4358H332.703C332.703 95.1337 333.269 95.6994 333.967 95.6994V94.4358ZM333.967 79.6201H335.23C335.23 78.9222 334.665 78.3564 333.967 78.3564V79.6201ZM269.039 79.6201V78.3564C268.704 78.3564 268.383 78.4896 268.146 78.7265L269.039 79.6201ZM252.916 95.743V97.0067C253.252 97.0067 253.573 96.8736 253.81 96.6366L252.916 95.743ZM231.129 95.743H229.865C229.865 96.4409 230.431 97.0067 231.129 97.0067V95.743ZM224.389 83.9777C224.389 87.6999 227.407 90.7173 231.129 90.7173C234.851 90.7173 237.868 87.6999 237.868 83.9777C237.868 80.2554 234.851 77.238 231.129 77.238C227.407 77.238 224.389 80.2554 224.389 83.9777ZM309.564 136.704H308.301C308.301 137.402 308.867 137.968 309.564 137.968V136.704ZM309.564 121.888H310.828C310.828 121.19 310.262 120.625 309.564 120.625V121.888ZM271.015 121.888C271.015 125.61 274.032 128.628 277.754 128.628C281.477 128.628 284.494 125.61 284.494 121.888C284.494 118.166 281.477 115.149 277.754 115.149C274.032 115.149 271.015 118.166 271.015 121.888ZM216.313 148.905H215.049C215.049 149.603 215.615 150.169 216.313 150.169V148.905ZM216.313 133.654H217.577C217.577 132.956 217.011 132.39 216.313 132.39V133.654ZM169.252 133.654V132.39C168.916 132.39 168.595 132.523 168.358 132.76L169.252 133.654ZM152.257 150.648V151.912C152.592 151.912 152.914 151.779 153.151 151.542L152.257 150.648ZM108.478 150.648C108.478 154.37 111.496 157.388 115.218 157.388C118.94 157.388 121.958 154.37 121.958 150.648C121.958 146.926 118.94 143.908 115.218 143.908C111.496 143.908 108.478 146.926 108.478 150.648ZM342.246 112.345H322.637V114.873H342.246V112.345ZM323.9 113.569L323.464 99.6253L320.938 99.7043L321.374 113.648L323.9 113.569ZM322.201 98.4011H279.497V100.928H322.201V98.4011ZM278.652 98.7255L261.222 114.413L262.913 116.291L280.343 100.604L278.652 98.7255ZM262.052 114.088L225.884 114.524L225.915 117.051L262.082 116.616L262.052 114.088ZM341.81 67.4626H199.754V69.9899H341.81V67.4626ZM198.491 68.7263V109.251H201.018V68.7263H198.491ZM199.754 107.988H109.118V110.515H199.754V107.988ZM108.224 108.358L91.2296 125.352L93.0167 127.139L110.011 110.145L108.224 108.358ZM92.1231 124.982H46.8047V127.509H92.1231V124.982ZM341.81 52.2112H299.978V54.7385H341.81V52.2112ZM301.242 53.4749V39.095H298.714V53.4749H301.242ZM299.978 37.8313H274.268V40.3587H299.978V37.8313ZM273.375 38.2014L258.995 52.5813L260.782 54.3684L275.162 39.9885L273.375 38.2014ZM259.888 52.2112H163.587V54.7385H259.888V52.2112ZM164.851 53.4749V39.095H162.323V53.4749H164.851ZM163.587 37.8313H106.503V40.3587H163.587V37.8313ZM105.609 38.2014L89.4865 54.3243L91.2737 56.1114L107.397 39.9885L105.609 38.2014ZM90.3801 53.9542H49.855V56.4816H90.3801V53.9542ZM341.81 29.552H326.123V32.0793H341.81V29.552ZM327.387 30.8156V16H324.859V30.8156H327.387ZM326.123 14.7363H262.067V17.2637H326.123V14.7363ZM261.174 15.1064L244.615 31.6651L246.402 33.4522L262.961 16.8936L261.174 15.1064ZM245.509 31.295H179.71V33.8223H245.509V31.295ZM341.81 158.099H318.28V160.627H341.81V158.099ZM341.81 169.865H281.24V172.392H341.81V169.865ZM282.504 171.128V158.927H279.977V171.128H282.504ZM281.24 157.664H218.492V160.191H281.24V157.664ZM217.598 158.034L204.526 171.106L206.313 172.894L219.385 159.821L217.598 158.034ZM341.81 93.1721H333.967V95.6994H341.81V93.1721ZM335.23 94.4358V79.6201H332.703V94.4358H335.23ZM333.967 78.3564H269.039V80.8838H333.967V78.3564ZM268.146 78.7265L252.023 94.8495L253.81 96.6366L269.933 80.5137L268.146 78.7265ZM252.916 94.4793H231.129V97.0067H252.916V94.4793ZM232.392 95.743V83.9777H229.865V95.743H232.392ZM341.81 135.44H309.564V137.968H341.81V135.44ZM310.828 136.704V121.888H308.301V136.704H310.828ZM309.564 120.625H277.754V123.152H309.564V120.625ZM341.81 147.641H216.313V150.169H341.81V147.641ZM217.577 148.905V133.654H215.049V148.905H217.577ZM216.313 132.39H169.252V134.917H216.313V132.39ZM168.358 132.76L151.364 149.754L153.151 151.542L170.145 134.547L168.358 132.76ZM152.257 149.384H115.218V151.912H152.257V149.384Z" fill="url(#paint0_linear_1032_7609)"/>
<path opacity="0.05" d="M326.488 110.104L325.451 110.136C325.469 110.696 325.928 111.141 326.488 111.141V110.104ZM326.131 98.6523L327.168 98.6199C327.15 98.0596 326.691 97.6145 326.131 97.6145V98.6523ZM291.061 98.6523V97.6145C290.804 97.6145 290.557 97.7094 290.367 97.8809L291.061 98.6523ZM276.747 111.535L276.759 112.573C277.011 112.57 277.254 112.475 277.441 112.306L276.747 111.535ZM241.51 111.893C241.51 114.95 243.988 117.428 247.045 117.428C250.102 117.428 252.58 114.95 252.58 111.893C252.58 108.836 250.102 106.358 247.045 106.358C243.988 106.358 241.51 108.836 241.51 111.893ZM225.574 73.2447V72.2069C225 72.2069 224.536 72.6715 224.536 73.2447H225.574ZM225.574 106.525V107.563C226.147 107.563 226.611 107.098 226.611 106.525H225.574ZM151.14 106.525V105.487C150.865 105.487 150.601 105.597 150.406 105.791L151.14 106.525ZM137.184 120.481V121.519C137.459 121.519 137.723 121.41 137.917 121.215L137.184 120.481ZM94.432 120.481C94.432 123.538 96.91 126.016 99.9668 126.016C103.024 126.016 105.502 123.538 105.502 120.481C105.502 117.425 103.024 114.947 99.9668 114.947C96.91 114.947 94.432 117.425 94.432 120.481ZM307.88 63.5826H306.842C306.842 64.1558 307.307 64.6204 307.88 64.6204V63.5826ZM307.88 51.7734H308.918C308.918 51.2003 308.453 50.7357 307.88 50.7357V51.7734ZM286.767 51.7734V50.7357C286.491 50.7357 286.227 50.845 286.033 51.0396L286.767 51.7734ZM274.957 63.5826V64.6204C275.233 64.6204 275.497 64.5111 275.691 64.3164L274.957 63.5826ZM195.872 63.5826H194.834C194.834 64.1558 195.299 64.6204 195.872 64.6204V63.5826ZM195.872 51.7734H196.909C196.909 51.2003 196.445 50.7357 195.872 50.7357V51.7734ZM148.993 51.7734V50.7357C148.718 50.7357 148.454 50.845 148.259 51.0396L148.993 51.7734ZM135.752 65.014V66.0518C136.027 66.0518 136.291 65.9425 136.486 65.7478L135.752 65.014ZM96.937 65.014C96.937 68.0708 99.415 70.5488 102.472 70.5488C105.529 70.5488 108.007 68.0708 108.007 65.014C108.007 61.9572 105.529 59.4792 102.472 59.4792C99.415 59.4792 96.937 61.9572 96.937 65.014ZM329.351 42.1114H328.313C328.313 42.6845 328.778 43.1491 329.351 43.1491V42.1114ZM329.351 29.9443H330.389C330.389 29.3712 329.924 28.9066 329.351 28.9066V29.9443ZM276.747 29.9443V28.9066C276.471 28.9066 276.207 29.0159 276.013 29.2105L276.747 29.9443ZM263.148 43.5428V44.5806C263.423 44.5806 263.687 44.4712 263.882 44.2766L263.148 43.5428ZM203.577 43.5428C203.577 46.5996 206.055 49.0776 209.112 49.0776C212.169 49.0776 214.647 46.5996 214.647 43.5428C214.647 40.486 212.169 38.008 209.112 38.008C206.055 38.008 203.577 40.486 203.577 43.5428ZM317.375 147.678C317.375 150.735 319.853 153.213 322.91 153.213C325.967 153.213 328.445 150.735 328.445 147.678C328.445 144.622 325.967 142.143 322.91 142.143C319.853 142.143 317.375 144.622 317.375 147.678ZM292.492 157.34H291.454C291.454 157.913 291.919 158.378 292.492 158.378V157.34ZM292.492 147.32H293.53C293.53 146.747 293.065 146.283 292.492 146.283V147.32ZM240.961 147.32V146.283C240.686 146.283 240.422 146.392 240.227 146.587L240.961 147.32ZM224.691 158.056C224.691 161.113 227.169 163.591 230.226 163.591C233.282 163.591 235.76 161.113 235.76 158.056C235.76 154.999 233.282 152.521 230.226 152.521C227.169 152.521 224.691 154.999 224.691 158.056ZM335.793 94.3581H334.755C334.755 94.9312 335.219 95.3958 335.793 95.3958V94.3581ZM335.793 82.191H336.83C336.83 81.6179 336.366 81.1532 335.793 81.1532V82.191ZM282.472 82.191V81.1532C282.197 81.1532 281.933 81.2626 281.739 81.4572L282.472 82.191ZM269.232 95.4316V96.4694C269.507 96.4694 269.771 96.3601 269.966 96.1654L269.232 95.4316ZM251.339 95.4316H250.301C250.301 96.0048 250.766 96.4694 251.339 96.4694V95.4316ZM245.804 85.7696C245.804 88.8263 248.282 91.3044 251.339 91.3044C254.396 91.3044 256.874 88.8263 256.874 85.7696C256.874 82.7128 254.396 80.2347 251.339 80.2347C248.282 80.2347 245.804 82.7128 245.804 85.7696ZM315.753 129.07H314.715C314.715 129.643 315.18 130.108 315.753 130.108V129.07ZM315.753 116.903H316.791C316.791 116.33 316.326 115.865 315.753 115.865V116.903ZM284.095 116.903C284.095 119.96 286.573 122.438 289.629 122.438C292.686 122.438 295.164 119.96 295.164 116.903C295.164 113.846 292.686 111.368 289.629 111.368C286.573 111.368 284.095 113.846 284.095 116.903ZM239.172 139.09H238.134C238.134 139.663 238.599 140.128 239.172 140.128V139.09ZM239.172 126.565H240.21C240.21 125.992 239.745 125.527 239.172 125.527V126.565ZM200.524 126.565V125.527C200.249 125.527 199.985 125.636 199.79 125.831L200.524 126.565ZM186.567 140.521V141.559C186.843 141.559 187.107 141.45 187.301 141.255L186.567 140.521ZM150.615 140.521C150.615 143.578 153.093 146.056 156.15 146.056C159.207 146.056 161.685 143.578 161.685 140.521C161.685 137.464 159.207 134.986 156.15 134.986C153.093 134.986 150.615 137.464 150.615 140.521ZM342.592 109.066H326.488V111.141H342.592V109.066ZM327.526 110.071L327.168 98.6199L325.093 98.6847L325.451 110.136L327.526 110.071ZM326.131 97.6145H291.061V99.6901H326.131V97.6145ZM290.367 97.8809L276.052 110.764L277.441 112.306L291.755 99.4237L290.367 97.8809ZM276.734 110.497L247.032 110.855L247.057 112.931L276.759 112.573L276.734 110.497ZM342.234 72.2069H225.574V74.2824H342.234V72.2069ZM224.536 73.2447V106.525H226.611V73.2447H224.536ZM225.574 105.487H151.14V107.563H225.574V105.487ZM150.406 105.791L136.45 119.748L137.917 121.215L151.874 107.259L150.406 105.791ZM137.184 119.444H99.9668V121.519H137.184V119.444ZM342.234 62.5448H307.88V64.6204H342.234V62.5448ZM308.918 63.5826V51.7734H306.842V63.5826H308.918ZM307.88 50.7357H286.767V52.8112H307.88V50.7357ZM286.033 51.0396L274.224 62.8488L275.691 64.3164L287.5 52.5072L286.033 51.0396ZM274.957 62.5448H195.872V64.6204H274.957V62.5448ZM196.909 63.5826V51.7734H194.834V63.5826H196.909ZM195.872 50.7357H148.993V52.8112H195.872V50.7357ZM148.259 51.0396L135.018 64.2802L136.486 65.7478L149.727 52.5072L148.259 51.0396ZM135.752 63.9762H102.472V66.0518H135.752V63.9762ZM342.234 41.0736H329.351V43.1491H342.234V41.0736ZM330.389 42.1114V29.9443H328.313V42.1114H330.389ZM329.351 28.9066H276.747V30.9821H329.351V28.9066ZM276.013 29.2105L262.414 42.809L263.882 44.2766L277.48 30.6782L276.013 29.2105ZM263.148 42.505H209.112V44.5806H263.148V42.505ZM342.234 146.641H322.91V148.716H342.234V146.641ZM342.234 156.303H292.492V158.378H342.234V156.303ZM293.53 157.34V147.32H291.454V157.34H293.53ZM292.492 146.283H240.961V148.358H292.492V146.283ZM240.227 146.587L229.492 157.322L230.959 158.79L241.695 148.054L240.227 146.587ZM342.234 93.3203H335.793V95.3958H342.234V93.3203ZM336.83 94.3581V82.191H334.755V94.3581H336.83ZM335.793 81.1532H282.472V83.2288H335.793V81.1532ZM281.739 81.4572L268.498 94.6978L269.966 96.1654L283.206 82.9248L281.739 81.4572ZM269.232 94.3938H251.339V96.4694H269.232V94.3938ZM252.377 95.4316V85.7696H250.301V95.4316H252.377ZM342.234 128.032H315.753V130.108H342.234V128.032ZM316.791 129.07V116.903H314.715V129.07H316.791ZM315.753 115.865H289.629V117.941H315.753V115.865ZM342.234 138.052H239.172V140.128H342.234V138.052ZM240.21 139.09V126.565H238.134V139.09H240.21ZM239.172 125.527H200.524V127.603H239.172V125.527ZM199.79 125.831L185.834 139.787L187.301 141.255L201.258 127.299L199.79 125.831ZM186.567 139.483H156.15V141.559H186.567V139.483Z" fill="url(#paint1_linear_1032_7609)"/>
<rect y="68" width="259" height="136" fill="url(#paint2_linear_1032_7609)"/>
</g>
<defs>
<linearGradient id="paint0_linear_1032_7609" x1="46.8047" y1="90.75" x2="326.716" y2="90.75" gradientUnits="userSpaceOnUse">
<stop stop-color="#DFAB53"/>
<stop offset="0.140622" stop-color="#E6BE6B"/>
<stop offset="0.3" stop-color="#EFD487"/>
<stop offset="0.470831" stop-color="#EBCA7A"/>
<stop offset="1" stop-color="#DFAB53"/>
</linearGradient>
<linearGradient id="paint1_linear_1032_7609" x1="99.9668" y1="91.3312" x2="329.838" y2="91.3312" gradientUnits="userSpaceOnUse">
<stop stop-color="#DFAB53"/>
<stop offset="0.140622" stop-color="#E6BE6B"/>
<stop offset="0.3" stop-color="#EFD487"/>
<stop offset="0.470831" stop-color="#EBCA7A"/>
<stop offset="1" stop-color="#DFAB53"/>
</linearGradient>
<linearGradient id="paint2_linear_1032_7609" x1="129.5" y1="68" x2="129.5" y2="204" gradientUnits="userSpaceOnUse">
<stop stop-color="#181715" stop-opacity="0"/>
<stop offset="0.0666667" stop-color="#181715" stop-opacity="0.01"/>
<stop offset="0.133333" stop-color="#181715" stop-opacity="0.03551"/>
<stop offset="0.2" stop-color="#181715" stop-opacity="0.0816599"/>
<stop offset="0.266667" stop-color="#181715" stop-opacity="0.147411"/>
<stop offset="0.333333" stop-color="#181715" stop-opacity="0.231775"/>
<stop offset="0.4" stop-color="#181715" stop-opacity="0.331884"/>
<stop offset="0.466667" stop-color="#181715" stop-opacity="0.442691"/>
<stop offset="0.533333" stop-color="#181715" stop-opacity="0.557309"/>
<stop offset="0.6" stop-color="#181715" stop-opacity="0.668116"/>
<stop offset="0.666667" stop-color="#181715" stop-opacity="0.768225"/>
<stop offset="0.733333" stop-color="#181715" stop-opacity="0.852589"/>
<stop offset="0.8" stop-color="#181715" stop-opacity="0.91834"/>
<stop offset="0.866667" stop-color="#181715" stop-opacity="0.96449"/>
<stop offset="0.933333" stop-color="#181715" stop-opacity="0.991353"/>
<stop offset="1" stop-color="#181715"/>
</linearGradient>
<clipPath id="clip0_1032_7609">
<rect width="259.2" height="204" fill="white" transform="translate(0.400391)"/>
</clipPath>
</defs>
</svg>
